<svg width="400" height="300" viewBox="0 0 400 300" xmlns="http://www.w3.org/2000/svg">
  <!-- Ciel -->
  <rect width="400" height="180" fill="#4682B4"/>
  
  <!-- Nuages -->
  <ellipse cx="100" cy="40" rx="30" ry="18" fill="white" opacity="0.9"/>
  <ellipse cx="120" cy="35" rx="25" ry="15" fill="white" opacity="0.9"/>
  <ellipse cx="300" cy="50" rx="35" ry="20" fill="white" opacity="0.9"/>
  
  <!-- Sol urbain -->
  <rect y="180" width="400" height="120" fill="#708090"/>
  
  <!-- Immeuble de bureaux principal -->
  <rect x="150" y="60" width="100" height="120" fill="#C0C0C0" stroke="#A9A9A9" stroke-width="2"/>
  
  <!-- Étages avec fenêtres -->
  <!-- Étage 1 -->
  <rect x="160" y="70" width="15" height="15" fill="#4169E1" opacity="0.8"/>
  <rect x="180" y="70" width="15" height="15" fill="#4169E1" opacity="0.8"/>
  <rect x="200" y="70" width="15" height="15" fill="#4169E1" opacity="0.8"/>
  <rect x="220" y="70" width="15" height="15" fill="#4169E1" opacity="0.8"/>
  
  <!-- Étage 2 -->
  <rect x="160" y="90" width="15" height="15" fill="#4169E1" opacity="0.8"/>
  <rect x="180" y="90" width="15" height="15" fill="#FFD700" opacity="0.8"/>
  <rect x="200" y="90" width="15" height="15" fill="#4169E1" opacity="0.8"/>
  <rect x="220" y="90" width="15" height="15" fill="#FFD700" opacity="0.8"/>
  
  <!-- Étage 3 -->
  <rect x="160" y="110" width="15" height="15" fill="#FFD700" opacity="0.8"/>
  <rect x="180" y="110" width="15" height="15" fill="#4169E1" opacity="0.8"/>
  <rect x="200" y="110" width="15" height="15" fill="#FFD700" opacity="0.8"/>
  <rect x="220" y="110" width="15" height="15" fill="#4169E1" opacity="0.8"/>
  
  <!-- Étage 4 -->
  <rect x="160" y="130" width="15" height="15" fill="#4169E1" opacity="0.8"/>
  <rect x="180" y="130" width="15" height="15" fill="#4169E1" opacity="0.8"/>
  <rect x="200" y="130" width="15" height="15" fill="#FFD700" opacity="0.8"/>
  <rect x="220" y="130" width="15" height="15" fill="#4169E1" opacity="0.8"/>
  
  <!-- Étage 5 -->
  <rect x="160" y="150" width="15" height="15" fill="#FFD700" opacity="0.8"/>
  <rect x="180" y="150" width="15" height="15" fill="#FFD700" opacity="0.8"/>
  <rect x="200" y="150" width="15" height="15" fill="#4169E1" opacity="0.8"/>
  <rect x="220" y="150" width="15" height="15" fill="#FFD700" opacity="0.8"/>
  
  <!-- Entrée principale -->
  <rect x="190" y="165" width="20" height="15" fill="#2F4F4F"/>
  
  <!-- Bâtiments adjacents -->
  <rect x="80" y="100" width="60" height="80" fill="#D3D3D3" stroke="#A9A9A9" stroke-width="1"/>
  <rect x="260" y="90" width="70" height="90" fill="#D3D3D3" stroke="#A9A9A9" stroke-width="1"/>
  
  <!-- Fenêtres bâtiments adjacents -->
  <rect x="90" y="110" width="10" height="10" fill="#4169E1" opacity="0.7"/>
  <rect x="105" y="110" width="10" height="10" fill="#4169E1" opacity="0.7"/>
  <rect x="120" y="110" width="10" height="10" fill="#4169E1" opacity="0.7"/>
  
  <rect x="270" y="100" width="12" height="12" fill="#4169E1" opacity="0.7"/>
  <rect x="290" y="100" width="12" height="12" fill="#4169E1" opacity="0.7"/>
  <rect x="310" y="100" width="12" height="12" fill="#4169E1" opacity="0.7"/>
  
  <!-- Route -->
  <rect y="250" width="400" height="30" fill="#2F2F2F"/>
  <rect y="262" width="400" height="3" fill="#FFD700"/>
  
  <!-- Voitures -->
  <rect x="30" y="245" width="25" height="12" fill="#FF4500"/>
  <circle cx="35" cy="257" r="3" fill="#000"/>
  <circle cx="50" cy="257" r="3" fill="#000"/>
  
  <rect x="320" y="245" width="30" height="12" fill="#000080"/>
  <circle cx="327" cy="257" r="3" fill="#000"/>
  <circle cx="343" cy="257" r="3" fill="#000"/>
  
  <!-- Lampadaires -->
  <rect x="15" y="200" width="2" height="50" fill="#2F2F2F"/>
  <circle cx="16" cy="195" r="5" fill="#FFD700" opacity="0.8"/>
  
  <rect x="380" y="200" width="2" height="50" fill="#2F2F2F"/>
  <circle cx="381" cy="195" r="5" fill="#FFD700" opacity="0.8"/>
</svg>