<svg width="400" height="300" viewBox="0 0 400 300" xmlns="http://www.w3.org/2000/svg">
  <defs>
    <linearGradient id="skyGradient2" x1="0%" y1="0%" x2="0%" y2="100%">
      <stop offset="0%" style="stop-color:#FFB6C1;stop-opacity:1" />
      <stop offset="100%" style="stop-color:#FFF0F5;stop-opacity:1" />
    </linearGradient>
    <linearGradient id="houseGradient" x1="0%" y1="0%" x2="0%" y2="100%">
      <stop offset="0%" style="stop-color:#F0E68C;stop-opacity:1" />
      <stop offset="100%" style="stop-color:#DAA520;stop-opacity:1" />
    </linearGradient>
    <linearGradient id="roofGradient" x1="0%" y1="0%" x2="0%" y2="100%">
      <stop offset="0%" style="stop-color:#8B4513;stop-opacity:1" />
      <stop offset="100%" style="stop-color:#A0522D;stop-opacity:1" />
    </linearGradient>
  </defs>
  
  <!-- Sky background -->
  <rect width="400" height="180" fill="url(#skyGradient2)"/>
  
  <!-- Ground -->
  <rect y="180" width="400" height="120" fill="#32CD32"/>
  
  <!-- Main house -->
  <rect x="100" y="120" width="200" height="130" fill="url(#houseGradient)" stroke="#B8860B" stroke-width="2"/>
  
  <!-- Roof -->
  <polygon points="80,120 200,60 320,120" fill="url(#roofGradient)" stroke="#654321" stroke-width="2"/>
  
  <!-- Chimney -->
  <rect x="260" y="70" width="20" height="40" fill="#8B4513" stroke="#654321" stroke-width="1"/>
  <rect x="255" y="65" width="30" height="8" fill="#A0522D"/>
  
  <!-- Front door -->
  <rect x="180" y="200" width="40" height="50" fill="#8B4513" stroke="#654321" stroke-width="2"/>
  <circle cx="210" cy="225" r="3" fill="#FFD700"/>
  
  <!-- Windows -->
  <rect x="130" y="150" width="30" height="35" fill="#87CEEB" stroke="#4682B4" stroke-width="2"/>
  <line x1="145" y1="150" x2="145" y2="185" stroke="#4682B4" stroke-width="1"/>
  <line x1="130" y1="167" x2="160" y2="167" stroke="#4682B4" stroke-width="1"/>
  
  <rect x="240" y="150" width="30" height="35" fill="#87CEEB" stroke="#4682B4" stroke-width="2"/>
  <line x1="255" y1="150" x2="255" y2="185" stroke="#4682B4" stroke-width="1"/>
  <line x1="240" y1="167" x2="270" y2="167" stroke="#4682B4" stroke-width="1"/>
  
  <!-- Garden elements -->
  <circle cx="50" cy="220" r="30" fill="#228B22"/>
  <rect x="46" y="220" width="8" height="30" fill="#8B4513"/>
  
  <circle cx="350" cy="210" r="25" fill="#228B22"/>
  <rect x="347" y="210" width="6" height="40" fill="#8B4513"/>
  
  <!-- Flowers -->
  <circle cx="80" cy="240" r="5" fill="#FF69B4"/>
  <circle cx="90" cy="245" r="4" fill="#FF1493"/>
  <circle cx="75" cy="250" r="4" fill="#FFB6C1"/>
  
  <circle cx="320" cy="235" r="5" fill="#FF4500"/>
  <circle cx="330" cy="240" r="4" fill="#FF6347"/>
  <circle cx="315" cy="245" r="4" fill="#FFA500"/>
  
  <!-- Fence -->
  <rect x="20" y="200" width="4" height="40" fill="#8B4513"/>
  <rect x="30" y="200" width="4" height="40" fill="#8B4513"/>
  <rect x="40" y="200" width="4" height="40" fill="#8B4513"/>
  <rect x="18" y="215" width="28" height="3" fill="#8B4513"/>
  <rect x="18" y="225" width="28" height="3" fill="#8B4513"/>
  
  <!-- Path -->
  <ellipse cx="200" cy="270" rx="40" ry="15" fill="#D2B48C" opacity="0.7"/>
  <ellipse cx="200" cy="280" rx="35" ry="12" fill="#D2B48C" opacity="0.7"/>
  
  <!-- Sun -->
  <circle cx="60" cy="60" r="25" fill="#FFD700" stroke="#FFA500" stroke-width="2"/>
  
  <!-- Sun rays -->
  <line x1="60" y1="20" x2="60" y2="35" stroke="#FFD700" stroke-width="3"/>
  <line x1="95" y1="35" x2="85" y2="45" stroke="#FFD700" stroke-width="3"/>
  <line x1="100" y1="60" x2="85" y2="60" stroke="#FFD700" stroke-width="3"/>
  <line x1="95" y1="85" x2="85" y2="75" stroke="#FFD700" stroke-width="3"/>
  <line x1="60" y1="100" x2="60" y2="85" stroke="#FFD700" stroke-width="3"/>
  <line x1="25" y1="85" x2="35" y2="75" stroke="#FFD700" stroke-width="3"/>
  <line x1="20" y1="60" x2="35" y2="60" stroke="#FFD700" stroke-width="3"/>
  <line x1="25" y1="35" x2="35" y2="45" stroke="#FFD700" stroke-width="3"/>
</svg>