<svg width="400" height="300" viewBox="0 0 400 300" xmlns="http://www.w3.org/2000/svg">
  <defs>
    <linearGradient id="skyGradient" x1="0%" y1="0%" x2="0%" y2="100%">
      <stop offset="0%" style="stop-color:#87CEEB;stop-opacity:1" />
      <stop offset="100%" style="stop-color:#E0F6FF;stop-opacity:1" />
    </linearGradient>
    <linearGradient id="buildingGradient" x1="0%" y1="0%" x2="0%" y2="100%">
      <stop offset="0%" style="stop-color:#F5F5F5;stop-opacity:1" />
      <stop offset="100%" style="stop-color:#E8E8E8;stop-opacity:1" />
    </linearGradient>
  </defs>
  
  <!-- Sky background -->
  <rect width="400" height="150" fill="url(#skyGradient)"/>
  
  <!-- Ground -->
  <rect y="150" width="400" height="150" fill="#90EE90"/>
  
  <!-- Building -->
  <rect x="50" y="80" width="120" height="170" fill="url(#buildingGradient)" stroke="#D3D3D3" stroke-width="2"/>
  
  <!-- Windows -->
  <rect x="70" y="100" width="20" height="25" fill="#4A90E2" stroke="#333" stroke-width="1"/>
  <rect x="100" y="100" width="20" height="25" fill="#4A90E2" stroke="#333" stroke-width="1"/>
  <rect x="130" y="100" width="20" height="25" fill="#4A90E2" stroke="#333" stroke-width="1"/>
  
  <rect x="70" y="140" width="20" height="25" fill="#4A90E2" stroke="#333" stroke-width="1"/>
  <rect x="100" y="140" width="20" height="25" fill="#4A90E2" stroke="#333" stroke-width="1"/>
  <rect x="130" y="140" width="20" height="25" fill="#4A90E2" stroke="#333" stroke-width="1"/>
  
  <rect x="70" y="180" width="20" height="25" fill="#4A90E2" stroke="#333" stroke-width="1"/>
  <rect x="100" y="180" width="20" height="25" fill="#4A90E2" stroke="#333" stroke-width="1"/>
  <rect x="130" y="180" width="20" height="25" fill="#4A90E2" stroke="#333" stroke-width="1"/>
  
  <!-- Door -->
  <rect x="90" y="220" width="30" height="30" fill="#8B4513" stroke="#654321" stroke-width="2"/>
  <circle cx="115" cy="235" r="2" fill="#FFD700"/>
  
  <!-- Second building -->
  <rect x="200" y="60" width="100" height="190" fill="url(#buildingGradient)" stroke="#D3D3D3" stroke-width="2"/>
  
  <!-- Windows for second building -->
  <rect x="220" y="80" width="18" height="22" fill="#4A90E2" stroke="#333" stroke-width="1"/>
  <rect x="250" y="80" width="18" height="22" fill="#4A90E2" stroke="#333" stroke-width="1"/>
  
  <rect x="220" y="120" width="18" height="22" fill="#4A90E2" stroke="#333" stroke-width="1"/>
  <rect x="250" y="120" width="18" height="22" fill="#4A90E2" stroke="#333" stroke-width="1"/>
  
  <rect x="220" y="160" width="18" height="22" fill="#4A90E2" stroke="#333" stroke-width="1"/>
  <rect x="250" y="160" width="18" height="22" fill="#4A90E2" stroke="#333" stroke-width="1"/>
  
  <rect x="220" y="200" width="18" height="22" fill="#4A90E2" stroke="#333" stroke-width="1"/>
  <rect x="250" y="200" width="18" height="22" fill="#4A90E2" stroke="#333" stroke-width="1"/>
  
  <!-- Trees -->
  <circle cx="330" cy="200" r="25" fill="#228B22"/>
  <rect x="325" y="200" width="10" height="50" fill="#8B4513"/>
  
  <circle cx="30" cy="180" r="20" fill="#228B22"/>
  <rect x="26" y="180" width="8" height="70" fill="#8B4513"/>
  
  <!-- Sun -->
  <circle cx="350" cy="50" r="20" fill="#FFD700" stroke="#FFA500" stroke-width="2"/>
  
  <!-- Clouds -->
  <ellipse cx="80" cy="40" rx="15" ry="8" fill="white" opacity="0.8"/>
  <ellipse cx="90" cy="35" rx="12" ry="6" fill="white" opacity="0.8"/>
  <ellipse cx="100" cy="40" rx="10" ry="5" fill="white" opacity="0.8"/>
  
  <ellipse cx="280" cy="30" rx="18" ry="10" fill="white" opacity="0.8"/>
  <ellipse cx="295" cy="25" rx="15" ry="8" fill="white" opacity="0.8"/>
</svg>