<svg width="400" height="300" viewBox="0 0 400 300" xmlns="http://www.w3.org/2000/svg">
  <!-- Ciel -->
  <rect width="400" height="200" fill="#87CEEB"/>
  
  <!-- Nuages -->
  <ellipse cx="80" cy="50" rx="25" ry="15" fill="white" opacity="0.8"/>
  <ellipse cx="95" cy="45" rx="20" ry="12" fill="white" opacity="0.8"/>
  <ellipse cx="320" cy="60" rx="30" ry="18" fill="white" opacity="0.8"/>
  <ellipse cx="340" cy="55" rx="25" ry="15" fill="white" opacity="0.8"/>
  
  <!-- Sol -->
  <rect y="200" width="400" height="100" fill="#90EE90"/>
  
  <!-- Villa moderne -->
  <rect x="120" y="120" width="160" height="80" fill="#F5F5F5" stroke="#D3D3D3" stroke-width="2"/>
  
  <!-- Toit plat moderne -->
  <rect x="115" y="115" width="170" height="10" fill="#696969"/>
  
  <!-- Fenêtres modernes -->
  <rect x="135" y="135" width="25" height="30" fill="#4169E1" opacity="0.7"/>
  <rect x="170" y="135" width="25" height="30" fill="#4169E1" opacity="0.7"/>
  <rect x="205" y="135" width="25" height="30" fill="#4169E1" opacity="0.7"/>
  <rect x="240" y="135" width="25" height="30" fill="#4169E1" opacity="0.7"/>
  
  <!-- Porte d'entrée -->
  <rect x="185" y="170" width="30" height="30" fill="#8B4513"/>
  <circle cx="210" cy="185" r="2" fill="#FFD700"/>
  
  <!-- Terrasse -->
  <rect x="100" y="200" width="200" height="15" fill="#D2B48C"/>
  
  <!-- Piscine -->
  <ellipse cx="350" cy="230" rx="40" ry="25" fill="#00BFFF"/>
  <ellipse cx="350" cy="230" rx="35" ry="20" fill="#87CEEB"/>
  
  <!-- Palmier -->
  <rect x="48" y="170" width="4" height="30" fill="#8B4513"/>
  <ellipse cx="50" cy="165" rx="8" ry="15" fill="#228B22"/>
  <ellipse cx="45" cy="160" rx="6" ry="12" fill="#228B22"/>
  <ellipse cx="55" cy="160" rx="6" ry="12" fill="#228B22"/>
  
  <!-- Soleil -->
  <circle cx="350" cy="40" r="20" fill="#FFD700"/>
  <line x1="330" y1="40" x2="320" y2="40" stroke="#FFD700" stroke-width="2"/>
  <line x1="370" y1="40" x2="380" y2="40" stroke="#FFD700" stroke-width="2"/>
  <line x1="350" y1="20" x2="350" y2="10" stroke="#FFD700" stroke-width="2"/>
  <line x1="350" y1="60" x2="350" y2="70" stroke="#FFD700" stroke-width="2"/>
  
  <!-- Voiture de luxe -->
  <ellipse cx="70" cy="195" rx="25" ry="8" fill="#2F4F4F"/>
  <rect x="50" y="190" width="40" height="8" fill="#2F4F4F"/>
  <rect x="55" y="185" width="20" height="5" fill="#4169E1" opacity="0.6"/>
  <circle cx="60" cy="198" r="4" fill="#000"/>
  <circle cx="80" cy="198" r="4" fill="#000"/>
</svg>