<svg width="400" height="300" viewBox="0 0 400 300" xmlns="http://www.w3.org/2000/svg">
  <defs>
    <linearGradient id="skyGradient3" x1="0%" y1="0%" x2="0%" y2="100%">
      <stop offset="0%" style="stop-color:#4169E1;stop-opacity:1" />
      <stop offset="100%" style="stop-color:#87CEFA;stop-opacity:1" />
    </linearGradient>
    <linearGradient id="apartmentGradient" x1="0%" y1="0%" x2="0%" y2="100%">
      <stop offset="0%" style="stop-color:#F5F5DC;stop-opacity:1" />
      <stop offset="100%" style="stop-color:#D3D3D3;stop-opacity:1" />
    </linearGradient>
    <linearGradient id="balconyGradient" x1="0%" y1="0%" x2="0%" y2="100%">
      <stop offset="0%" style="stop-color:#E6E6FA;stop-opacity:1" />
      <stop offset="100%" style="stop-color:#D8BFD8;stop-opacity:1" />
    </linearGradient>
  </defs>
  
  <!-- Sky background -->
  <rect width="400" height="200" fill="url(#skyGradient3)"/>
  
  <!-- Ground -->
  <rect y="200" width="400" height="100" fill="#696969"/>
  
  <!-- Main apartment building -->
  <rect x="80" y="50" width="240" height="200" fill="url(#apartmentGradient)" stroke="#A9A9A9" stroke-width="2"/>
  
  <!-- Balconies -->
  <rect x="90" y="80" width="50" height="30" fill="url(#balconyGradient)" stroke="#9370DB" stroke-width="1"/>
  <rect x="160" y="80" width="50" height="30" fill="url(#balconyGradient)" stroke="#9370DB" stroke-width="1"/>
  <rect x="230" y="80" width="50" height="30" fill="url(#balconyGradient)" stroke="#9370DB" stroke-width="1"/>
  
  <rect x="90" y="130" width="50" height="30" fill="url(#balconyGradient)" stroke="#9370DB" stroke-width="1"/>
  <rect x="160" y="130" width="50" height="30" fill="url(#balconyGradient)" stroke="#9370DB" stroke-width="1"/>
  <rect x="230" y="130" width="50" height="30" fill="url(#balconyGradient)" stroke="#9370DB" stroke-width="1"/>
  
  <rect x="90" y="180" width="50" height="30" fill="url(#balconyGradient)" stroke="#9370DB" stroke-width="1"/>
  <rect x="160" y="180" width="50" height="30" fill="url(#balconyGradient)" stroke="#9370DB" stroke-width="1"/>
  <rect x="230" y="180" width="50" height="30" fill="url(#balconyGradient)" stroke="#9370DB" stroke-width="1"/>
  
  <!-- Windows -->
  <rect x="100" y="60" width="15" height="20" fill="#4A90E2" stroke="#2F4F4F" stroke-width="1"/>
  <rect x="125" y="60" width="15" height="20" fill="#4A90E2" stroke="#2F4F4F" stroke-width="1"/>
  
  <rect x="170" y="60" width="15" height="20" fill="#4A90E2" stroke="#2F4F4F" stroke-width="1"/>
  <rect x="195" y="60" width="15" height="20" fill="#4A90E2" stroke="#2F4F4F" stroke-width="1"/>
  
  <rect x="240" y="60" width="15" height="20" fill="#4A90E2" stroke="#2F4F4F" stroke-width="1"/>
  <rect x="265" y="60" width="15" height="20" fill="#4A90E2" stroke="#2F4F4F" stroke-width="1"/>
  
  <!-- Second row windows -->
  <rect x="100" y="110" width="15" height="20" fill="#4A90E2" stroke="#2F4F4F" stroke-width="1"/>
  <rect x="125" y="110" width="15" height="20" fill="#4A90E2" stroke="#2F4F4F" stroke-width="1"/>
  
  <rect x="170" y="110" width="15" height="20" fill="#4A90E2" stroke="#2F4F4F" stroke-width="1"/>
  <rect x="195" y="110" width="15" height="20" fill="#4A90E2" stroke="#2F4F4F" stroke-width="1"/>
  
  <rect x="240" y="110" width="15" height="20" fill="#4A90E2" stroke="#2F4F4F" stroke-width="1"/>
  <rect x="265" y="110" width="15" height="20" fill="#4A90E2" stroke="#2F4F4F" stroke-width="1"/>
  
  <!-- Third row windows -->
  <rect x="100" y="160" width="15" height="20" fill="#4A90E2" stroke="#2F4F4F" stroke-width="1"/>
  <rect x="125" y="160" width="15" height="20" fill="#4A90E2" stroke="#2F4F4F" stroke-width="1"/>
  
  <rect x="170" y="160" width="15" height="20" fill="#4A90E2" stroke="#2F4F4F" stroke-width="1"/>
  <rect x="195" y="160" width="15" height="20" fill="#4A90E2" stroke="#2F4F4F" stroke-width="1"/>
  
  <rect x="240" y="160" width="15" height="20" fill="#4A90E2" stroke="#2F4F4F" stroke-width="1"/>
  <rect x="265" y="160" width="15" height="20" fill="#4A90E2" stroke="#2F4F4F" stroke-width="1"/>
  
  <!-- Entrance -->
  <rect x="180" y="220" width="40" height="30" fill="#8B4513" stroke="#654321" stroke-width="2"/>
  <circle cx="210" cy="235" r="2" fill="#FFD700"/>
  
  <!-- Street elements -->
  <rect x="20" y="240" width="360" height="10" fill="#2F4F4F"/>
  
  <!-- Street lamps -->
  <rect x="50" y="200" width="3" height="40" fill="#2F4F4F"/>
  <circle cx="51.5" cy="195" r="8" fill="#FFD700" opacity="0.7"/>
  
  <rect x="350" y="200" width="3" height="40" fill="#2F4F4F"/>
  <circle cx="351.5" cy="195" r="8" fill="#FFD700" opacity="0.7"/>
  
  <!-- Cars -->
  <rect x="30" y="250" width="40" height="15" fill="#FF4500" stroke="#8B0000" stroke-width="1" rx="3"/>
  <circle cx="38" cy="270" r="5" fill="#2F4F4F"/>
  <circle cx="62" cy="270" r="5" fill="#2F4F4F"/>
  
  <rect x="330" y="250" width="40" height="15" fill="#0000FF" stroke="#000080" stroke-width="1" rx="3"/>
  <circle cx="338" cy="270" r="5" fill="#2F4F4F"/>
  <circle cx="362" cy="270" r="5" fill="#2F4F4F"/>
  
  <!-- Moon -->
  <circle cx="350" cy="70" r="20" fill="#F0F8FF" stroke="#E6E6FA" stroke-width="2"/>
  <circle cx="345" cy="65" r="3" fill="#D3D3D3"/>
  <circle cx="355" cy="70" r="2" fill="#D3D3D3"/>
  <circle cx="350" cy="78" r="2.5" fill="#D3D3D3"/>
  
  <!-- Stars -->
  <circle cx="300" cy="40" r="2" fill="#FFFF00"/>
  <circle cx="320" cy="30" r="1.5" fill="#FFFF00"/>
  <circle cx="280" cy="50" r="1" fill="#FFFF00"/>
  <circle cx="370" cy="45" r="1.5" fill="#FFFF00"/>
  <circle cx="310" cy="60" r="1" fill="#FFFF00"/>
</svg>