<svg width="1200" height="800" viewBox="0 0 1200 800" xmlns="http://www.w3.org/2000/svg">
  <defs>
    <!-- Gradients élégants selon la charte graphique -->
    <linearGradient id="premiumBg" x1="0%" y1="0%" x2="100%" y2="100%">
      <stop offset="0%" style="stop-color:#f8f9fa;stop-opacity:0.95" />
      <stop offset="50%" style="stop-color:#ffffff;stop-opacity:0.9" />
      <stop offset="100%" style="stop-color:#e9ecef;stop-opacity:0.95" />
    </linearGradient>
    
    <radialGradient id="subtleGlow" cx="50%" cy="50%" r="70%">
      <stop offset="0%" style="stop-color:#d4af37;stop-opacity:0.15" />
      <stop offset="50%" style="stop-color:#e6c547;stop-opacity:0.08" />
      <stop offset="100%" style="stop-color:#ffffff;stop-opacity:0.02" />
    </radialGradient>
    
    <linearGradient id="goldAccent" x1="0%" y1="0%" x2="100%" y2="100%">
      <stop offset="0%" style="stop-color:#d4af37;stop-opacity:0.3" />
      <stop offset="100%" style="stop-color:#e6c547;stop-opacity:0.2" />
    </linearGradient>
    
    <linearGradient id="navyAccent" x1="0%" y1="0%" x2="100%" y2="100%">
      <stop offset="0%" style="stop-color:#0d1b2a;stop-opacity:0.15" />
      <stop offset="100%" style="stop-color:#1e3a8a;stop-opacity:0.1" />
    </linearGradient>
    
    <!-- Motifs élégants -->
    <pattern id="elegantHex" patternUnits="userSpaceOnUse" width="120" height="104">
      <polygon points="60,8 90,26 90,62 60,80 30,62 30,26" fill="none" stroke="#d4af37" stroke-width="1" opacity="0.15"/>
      <circle cx="60" cy="44" r="2" fill="#d4af37" opacity="0.2"/>
    </pattern>
    
    <pattern id="subtleDots" patternUnits="userSpaceOnUse" width="80" height="80">
      <circle cx="40" cy="40" r="2" fill="#d4af37" opacity="0.1"/>
      <circle cx="20" cy="20" r="1" fill="#0d1b2a" opacity="0.08"/>
      <circle cx="60" cy="60" r="1.5" fill="#e6c547" opacity="0.12"/>
    </pattern>
    
    <!-- Filtres subtils -->
    <filter id="softBlur" x="-50%" y="-50%" width="200%" height="200%">
      <feGaussianBlur in="SourceGraphic" stdDeviation="3"/>
      <feColorMatrix values="1 0 0 0 0  0 1 0 0 0  0 0 1 0 0  0 0 0 0.6 0"/>
    </filter>
    
    <filter id="elegantGlow" x="-100%" y="-100%" width="300%" height="300%">
      <feGaussianBlur stdDeviation="4" result="coloredBlur"/>
      <feMerge> 
        <feMergeNode in="coloredBlur"/>
        <feMergeNode in="SourceGraphic"/> 
      </feMerge>
    </filter>
  </defs>
  
  <!-- Base élégante -->
  <rect width="100%" height="100%" fill="url(#premiumBg)"/>
  
  <!-- Motifs subtils -->
  <rect width="100%" height="100%" fill="url(#elegantHex)"/>
  <rect width="100%" height="100%" fill="url(#subtleDots)"/>
  
  <!-- Formes géométriques élégantes -->
  <g opacity="0.4">
    <!-- Triangles dorés subtils -->
    <polygon points="200,150 280,120 240,220" fill="url(#goldAccent)" filter="url(#elegantGlow)"/>
    <polygon points="920,200 1000,170 960,270" fill="url(#goldAccent)" filter="url(#elegantGlow)"/>
    <polygon points="150,550 230,520 190,620" fill="url(#goldAccent)" filter="url(#elegantGlow)"/>
    <polygon points="970,580 1050,550 1010,650" fill="url(#goldAccent)" filter="url(#elegantGlow)"/>
    
    <!-- Cercles élégants -->
    <circle cx="300" cy="200" r="50" fill="url(#navyAccent)" filter="url(#elegantGlow)"/>
    <circle cx="900" cy="250" r="40" fill="url(#goldAccent)" filter="url(#elegantGlow)"/>
    <circle cx="250" cy="600" r="60" fill="url(#navyAccent)" filter="url(#elegantGlow)"/>
    <circle cx="950" cy="550" r="45" fill="url(#goldAccent)" filter="url(#elegantGlow)"/>
  </g>
  
  <!-- Éléments architecturaux premium -->
  <g opacity="0.3" fill="url(#navyAccent)">
    <!-- Gratte-ciels stylisés -->
    <rect x="100" y="300" width="15" height="250" rx="7" transform="skewX(-5)" filter="url(#softBlur)"/>
    <rect x="120" y="280" width="18" height="270" rx="9" transform="skewX(-3)" filter="url(#softBlur)"/>
    <rect x="145" y="290" width="16" height="260" rx="8" transform="skewX(-4)" filter="url(#softBlur)"/>
    <rect x="165" y="270" width="20" height="280" rx="10" transform="skewX(-2)" filter="url(#softBlur)"/>
    
    <rect x="1020" y="320" width="15" height="230" rx="7" transform="skewX(5)" filter="url(#softBlur)"/>
    <rect x="1040" y="300" width="18" height="250" rx="9" transform="skewX(3)" filter="url(#softBlur)"/>
    <rect x="1065" y="310" width="16" height="240" rx="8" transform="skewX(4)" filter="url(#softBlur)"/>
    <rect x="1085" y="290" width="20" height="260" rx="10" transform="skewX(2)" filter="url(#softBlur)"/>
  </g>
  
  <!-- Lignes de connexion élégantes -->
  <g stroke="#d4af37" stroke-width="2" opacity="0.25" fill="none">
    <path d="M250 250 Q500 200 750 280 Q900 320 1050 300" stroke-dasharray="8,12" filter="url(#softBlur)"/>
    <path d="M200 500 Q450 420 700 460 Q900 500 1100 450" stroke-dasharray="12,8" filter="url(#softBlur)"/>
    <path d="M300 350 Q550 280 800 320 Q1000 360 1150 340" stroke-dasharray="6,10" filter="url(#softBlur)"/>
  </g>
  
  <!-- Effet de profondeur subtil -->
  <ellipse cx="600" cy="400" rx="400" ry="200" fill="url(#subtleGlow)" opacity="0.6"/>
  
  <!-- Éléments décoratifs premium -->
  <g opacity="0.2">
    <rect x="150" y="120" width="40" height="40" rx="20" fill="url(#goldAccent)" transform="rotate(45 170 140)" filter="url(#softBlur)"/>
    <rect x="1010" y="180" width="35" height="35" rx="17" fill="url(#navyAccent)" transform="rotate(30 1027 197)" filter="url(#softBlur)"/>
    <rect x="180" y="680" width="45" height="45" rx="22" fill="url(#goldAccent)" transform="rotate(60 202 702)" filter="url(#softBlur)"/>
    <rect x="980" y="720" width="38" height="38" rx="19" fill="url(#navyAccent)" transform="rotate(15 999 739)" filter="url(#softBlur)"/>
  </g>
  
  <!-- Overlay final très subtil -->
  <rect width="100%" height="100%" fill="url(#subtleGlow)" opacity="0.3"/>
  
  <!-- Détails fins -->
  <g opacity="0.15">
    <!-- Lignes fines décoratives -->
    <line x1="0" y1="200" x2="1200" y2="220" stroke="#d4af37" stroke-width="1" opacity="0.3"/>
    <line x1="0" y1="580" x2="1200" y2="560" stroke="#d4af37" stroke-width="1" opacity="0.3"/>
    
    <!-- Points de connexion -->
    <circle cx="300" cy="210" r="3" fill="#d4af37" opacity="0.4"/>
    <circle cx="600" cy="400" r="4" fill="#d4af37" opacity="0.5"/>
    <circle cx="900" cy="570" r="3" fill="#d4af37" opacity="0.4"/>
  </g>
</svg>